<?xml version="1.0" encoding="iso-8859-1"?>
<!-- Generator: Adobe Illustrator 19.0.0, SVG Export Plug-In . SVG Version: 6.00 Build 0)  -->
<svg xmlns="http://www.w3.org/2000/svg" xmlns:xlink="http://www.w3.org/1999/xlink" version="1.1" id="Capa_1" x="0px" y="0px" viewBox="0 0 511.467 511.467" style="enable-background:new 0 0 511.467 511.467;" xml:space="preserve" width="512px" height="512px">
<g>
	<g>
		<path d="M279.317,471.563c-15.595-22.997-23.851-49.877-23.851-77.76v94.869c9.344-1.813,17.835-6.016,25.579-11.499    C280.981,475.189,280.469,473.248,279.317,471.563z" fill="#FFFFFF"/>
	</g>
</g>
<g>
	<g>
		<path d="M127.744,255.157c0.832,38.229,5.973,74.56,14.571,106.667h91.819V255.157H127.744z" fill="#FFFFFF"/>
	</g>
</g>
<g>
	<g>
		<path d="M148.757,105.824h85.376V0.309C199.232,7.264,168.235,47.776,148.757,105.824z" fill="#FFFFFF"/>
	</g>
</g>
<g>
	<g>
		<path d="M148.757,383.157c19.477,58.027,50.475,98.539,85.376,105.493V383.157H148.757z" fill="#FFFFFF"/>
	</g>
</g>
<g>
	<g>
		<path d="M142.315,127.157c-8.597,32.107-13.739,68.416-14.571,106.667h106.389V127.157H142.315z" fill="#FFFFFF"/>
	</g>
</g>
<g>
	<g>
		<path d="M460.181,127.157h-90.56c8.043,32.277,12.821,68.267,13.568,106.667h106.389    C487.936,195.339,477.653,159.072,460.181,127.157z" fill="#FFFFFF"/>
	</g>
</g>
<g>
	<g>
		<path d="M255.467,0.309v105.493h85.376C321.387,47.776,290.389,7.264,255.467,0.309z" fill="#FFFFFF"/>
	</g>
</g>
<g>
	<g>
		<path d="M29.419,127.157C11.968,159.072,1.685,195.339,0,233.824h106.411c0.747-38.4,5.525-74.389,13.568-106.667H29.419z" fill="#FFFFFF"/>
	</g>
</g>
<g>
	<g>
		<path d="M106.411,255.157H0.021c1.664,38.485,11.947,74.752,29.419,106.667H120C111.936,329.547,107.157,293.536,106.411,255.157z    " fill="#FFFFFF"/>
	</g>
</g>
<g>
	<g>
		<path d="M125.931,383.157H42.624c32.341,47.019,80.661,82.048,137.045,97.6C157.312,458.357,138.837,424.544,125.931,383.157z" fill="#FFFFFF"/>
	</g>
</g>
<g>
	<g>
		<path d="M383.083,255.157c0,0.171-0.021,0.363-0.021,0.555c3.669-0.299,7.339-0.555,11.072-0.555H383.083z" fill="#FFFFFF"/>
	</g>
</g>
<g>
	<g>
		<path d="M42.624,105.824h83.307c12.885-41.387,31.381-75.2,53.717-97.6C123.285,23.776,74.965,58.805,42.624,105.824z" fill="#FFFFFF"/>
	</g>
</g>
<g>
	<g>
		<g>
			<path d="M395.285,255.179c27.47,0.224,53.929,8.45,76.609,23.829c3.093,2.091,7.104,2.432,10.453,0.875     c3.392-1.579,5.739-4.8,6.144-8.512c0.64-5.931,1.045-11.2,1.301-16.192H395.285z" fill="#FFFFFF"/>
			<path d="M394.133,255.179h1.151c-0.384-0.003-0.767-0.021-1.151-0.021V255.179z" fill="#FFFFFF"/>
		</g>
	</g>
</g>
<g>
	<g>
		<path d="M255.467,255.157v106.667h3.883c12.011-50.581,51.755-90.432,102.251-102.656c0.043-1.344,0.128-2.688,0.149-4.011    H255.467z" fill="#FFFFFF"/>
	</g>
</g>
<g>
	<g>
		<path d="M309.952,8.224c22.357,22.379,40.832,56.213,53.717,97.6h83.328C414.656,58.805,366.336,23.776,309.952,8.224z" fill="#FFFFFF"/>
	</g>
</g>
<g>
	<g>
		<path d="M255.467,383.157v10.667c0-3.605,0.277-7.125,0.533-10.667H255.467z" fill="#FFFFFF"/>
	</g>
</g>
<g>
	<g>
		<path d="M347.285,127.157h-91.819v106.667h106.389C361.024,195.595,355.883,159.264,347.285,127.157z" fill="#FFFFFF"/>
	</g>
</g>
<g>
	<g>
		<path d="M394.133,276.491c-64.704,0-117.333,52.629-117.333,117.333s52.629,117.333,117.333,117.333    s117.333-52.629,117.333-117.333S458.837,276.491,394.133,276.491z M437.355,405.643h-32v32c0,5.888-4.779,10.667-10.667,10.667    s-10.667-4.779-10.667-10.667v-32h-32c-5.888,0-10.667-4.779-10.667-10.667c0-5.888,4.779-10.667,10.667-10.667h32v-32    c0-5.888,4.779-10.667,10.667-10.667s10.667,4.779,10.667,10.667v32h32c5.888,0,10.667,4.779,10.667,10.667    C448.021,400.864,443.243,405.643,437.355,405.643z" fill="#FFFFFF"/>
	</g>
</g>
<g>
</g>
<g>
</g>
<g>
</g>
<g>
</g>
<g>
</g>
<g>
</g>
<g>
</g>
<g>
</g>
<g>
</g>
<g>
</g>
<g>
</g>
<g>
</g>
<g>
</g>
<g>
</g>
<g>
</g>
</svg>
